<mxfile host="app.diagrams.net" modified="2022-04-13T21:01:59.455Z" agent="5.0 (Windows NT 10.0; Win64; x64) AppleWebKit/537.36 (KHTML, like Gecko) Chrome/99.0.4844.84 Safari/537.36 OPR/85.0.4341.68" etag="977tCwDu9TTD5So5GdRE" version="17.4.3" type="github">
  <diagram id="vM7syXO2gUvoUPvAlcCj" name="Page-1">
    <mxGraphModel dx="688" dy="378" grid="1" gridSize="10" guides="1" tooltips="1" connect="1" arrows="1" fold="1" page="1" pageScale="1" pageWidth="827" pageHeight="1169" math="0" shadow="0">
      <root>
        <mxCell id="0" />
        <mxCell id="1" parent="0" />
        <mxCell id="Xz7PKnq3-Rk4ZBnD3YuL-12" style="rounded=0;orthogonalLoop=1;jettySize=auto;html=1;entryX=0;entryY=0.5;entryDx=0;entryDy=0;" edge="1" parent="1" source="Xz7PKnq3-Rk4ZBnD3YuL-1" target="Xz7PKnq3-Rk4ZBnD3YuL-6">
          <mxGeometry relative="1" as="geometry" />
        </mxCell>
        <mxCell id="Xz7PKnq3-Rk4ZBnD3YuL-13" style="edgeStyle=none;rounded=0;orthogonalLoop=1;jettySize=auto;html=1;entryX=0;entryY=0.5;entryDx=0;entryDy=0;" edge="1" parent="1" source="Xz7PKnq3-Rk4ZBnD3YuL-1" target="Xz7PKnq3-Rk4ZBnD3YuL-7">
          <mxGeometry relative="1" as="geometry" />
        </mxCell>
        <mxCell id="Xz7PKnq3-Rk4ZBnD3YuL-1" value="Пользователь" style="shape=umlActor;verticalLabelPosition=bottom;verticalAlign=top;html=1;outlineConnect=0;" vertex="1" parent="1">
          <mxGeometry x="320" y="280" width="30" height="60" as="geometry" />
        </mxCell>
        <mxCell id="Xz7PKnq3-Rk4ZBnD3YuL-29" style="edgeStyle=none;rounded=0;orthogonalLoop=1;jettySize=auto;html=1;entryX=0;entryY=0.5;entryDx=0;entryDy=0;" edge="1" parent="1" source="Xz7PKnq3-Rk4ZBnD3YuL-2" target="Xz7PKnq3-Rk4ZBnD3YuL-28">
          <mxGeometry relative="1" as="geometry" />
        </mxCell>
        <mxCell id="Xz7PKnq3-Rk4ZBnD3YuL-2" value="Преподаватель" style="shape=umlActor;verticalLabelPosition=bottom;verticalAlign=top;html=1;outlineConnect=0;" vertex="1" parent="1">
          <mxGeometry x="320" y="380" width="30" height="60" as="geometry" />
        </mxCell>
        <mxCell id="Xz7PKnq3-Rk4ZBnD3YuL-19" style="edgeStyle=none;rounded=0;orthogonalLoop=1;jettySize=auto;html=1;entryX=0;entryY=0.5;entryDx=0;entryDy=0;" edge="1" parent="1" source="Xz7PKnq3-Rk4ZBnD3YuL-3" target="Xz7PKnq3-Rk4ZBnD3YuL-8">
          <mxGeometry relative="1" as="geometry" />
        </mxCell>
        <mxCell id="Xz7PKnq3-Rk4ZBnD3YuL-30" style="edgeStyle=none;rounded=0;orthogonalLoop=1;jettySize=auto;html=1;" edge="1" parent="1" source="Xz7PKnq3-Rk4ZBnD3YuL-3">
          <mxGeometry relative="1" as="geometry">
            <mxPoint x="480" y="410" as="targetPoint" />
          </mxGeometry>
        </mxCell>
        <mxCell id="Xz7PKnq3-Rk4ZBnD3YuL-3" value="Студент" style="shape=umlActor;verticalLabelPosition=bottom;verticalAlign=top;html=1;outlineConnect=0;" vertex="1" parent="1">
          <mxGeometry x="320" y="480" width="30" height="60" as="geometry" />
        </mxCell>
        <mxCell id="Xz7PKnq3-Rk4ZBnD3YuL-17" style="edgeStyle=none;rounded=0;orthogonalLoop=1;jettySize=auto;html=1;exitX=0;exitY=1;exitDx=0;exitDy=0;entryX=1;entryY=0.3333333333333333;entryDx=0;entryDy=0;entryPerimeter=0;" edge="1" parent="1" source="Xz7PKnq3-Rk4ZBnD3YuL-6" target="Xz7PKnq3-Rk4ZBnD3YuL-2">
          <mxGeometry relative="1" as="geometry" />
        </mxCell>
        <mxCell id="Xz7PKnq3-Rk4ZBnD3YuL-18" style="edgeStyle=none;rounded=0;orthogonalLoop=1;jettySize=auto;html=1;exitX=0;exitY=1;exitDx=0;exitDy=0;entryX=1;entryY=0.3333333333333333;entryDx=0;entryDy=0;entryPerimeter=0;" edge="1" parent="1" source="Xz7PKnq3-Rk4ZBnD3YuL-6" target="Xz7PKnq3-Rk4ZBnD3YuL-3">
          <mxGeometry relative="1" as="geometry" />
        </mxCell>
        <mxCell id="Xz7PKnq3-Rk4ZBnD3YuL-23" style="edgeStyle=none;rounded=0;orthogonalLoop=1;jettySize=auto;html=1;entryX=0;entryY=0.5;entryDx=0;entryDy=0;" edge="1" parent="1" source="Xz7PKnq3-Rk4ZBnD3YuL-6" target="Xz7PKnq3-Rk4ZBnD3YuL-20">
          <mxGeometry relative="1" as="geometry" />
        </mxCell>
        <mxCell id="Xz7PKnq3-Rk4ZBnD3YuL-6" value="Авторизация" style="ellipse;whiteSpace=wrap;html=1;" vertex="1" parent="1">
          <mxGeometry x="480" y="320" width="90" height="40" as="geometry" />
        </mxCell>
        <mxCell id="Xz7PKnq3-Rk4ZBnD3YuL-24" style="edgeStyle=none;rounded=0;orthogonalLoop=1;jettySize=auto;html=1;entryX=0;entryY=0.5;entryDx=0;entryDy=0;" edge="1" parent="1" source="Xz7PKnq3-Rk4ZBnD3YuL-7" target="Xz7PKnq3-Rk4ZBnD3YuL-20">
          <mxGeometry relative="1" as="geometry" />
        </mxCell>
        <mxCell id="Xz7PKnq3-Rk4ZBnD3YuL-7" value="Регистрация" style="ellipse;whiteSpace=wrap;html=1;" vertex="1" parent="1">
          <mxGeometry x="480" y="260" width="90" height="40" as="geometry" />
        </mxCell>
        <mxCell id="Xz7PKnq3-Rk4ZBnD3YuL-22" style="edgeStyle=none;rounded=0;orthogonalLoop=1;jettySize=auto;html=1;entryX=0.5;entryY=1;entryDx=0;entryDy=0;" edge="1" parent="1" source="Xz7PKnq3-Rk4ZBnD3YuL-8" target="Xz7PKnq3-Rk4ZBnD3YuL-20">
          <mxGeometry relative="1" as="geometry">
            <Array as="points">
              <mxPoint x="640" y="460" />
            </Array>
          </mxGeometry>
        </mxCell>
        <mxCell id="Xz7PKnq3-Rk4ZBnD3YuL-8" value="Решение задач" style="ellipse;whiteSpace=wrap;html=1;" vertex="1" parent="1">
          <mxGeometry x="480" y="460" width="90" height="40" as="geometry" />
        </mxCell>
        <mxCell id="Xz7PKnq3-Rk4ZBnD3YuL-25" style="edgeStyle=none;rounded=0;orthogonalLoop=1;jettySize=auto;html=1;exitX=1;exitY=0.75;exitDx=0;exitDy=0;entryX=0;entryY=0.75;entryDx=0;entryDy=0;" edge="1" parent="1" source="Xz7PKnq3-Rk4ZBnD3YuL-20" target="Xz7PKnq3-Rk4ZBnD3YuL-21">
          <mxGeometry relative="1" as="geometry" />
        </mxCell>
        <mxCell id="Xz7PKnq3-Rk4ZBnD3YuL-20" value="Сервер" style="whiteSpace=wrap;html=1;aspect=fixed;" vertex="1" parent="1">
          <mxGeometry x="640" y="320" width="80" height="80" as="geometry" />
        </mxCell>
        <mxCell id="Xz7PKnq3-Rk4ZBnD3YuL-26" style="edgeStyle=none;rounded=0;orthogonalLoop=1;jettySize=auto;html=1;exitX=0;exitY=0.25;exitDx=0;exitDy=0;entryX=1;entryY=0.25;entryDx=0;entryDy=0;" edge="1" parent="1" source="Xz7PKnq3-Rk4ZBnD3YuL-21" target="Xz7PKnq3-Rk4ZBnD3YuL-20">
          <mxGeometry relative="1" as="geometry" />
        </mxCell>
        <mxCell id="Xz7PKnq3-Rk4ZBnD3YuL-21" value="База Данных" style="whiteSpace=wrap;html=1;aspect=fixed;" vertex="1" parent="1">
          <mxGeometry x="800" y="320" width="80" height="80" as="geometry" />
        </mxCell>
        <mxCell id="Xz7PKnq3-Rk4ZBnD3YuL-31" style="edgeStyle=none;rounded=0;orthogonalLoop=1;jettySize=auto;html=1;entryX=0;entryY=0.75;entryDx=0;entryDy=0;" edge="1" parent="1" source="Xz7PKnq3-Rk4ZBnD3YuL-28" target="Xz7PKnq3-Rk4ZBnD3YuL-20">
          <mxGeometry relative="1" as="geometry" />
        </mxCell>
        <mxCell id="Xz7PKnq3-Rk4ZBnD3YuL-28" value="Просмотр статистики" style="ellipse;whiteSpace=wrap;html=1;" vertex="1" parent="1">
          <mxGeometry x="480" y="390" width="90" height="40" as="geometry" />
        </mxCell>
      </root>
    </mxGraphModel>
  </diagram>
</mxfile>
